<svg xmlns="http://www.w3.org/2000/svg" version="1.1" xmlns:xlink="http://www.w3.org/1999/xlink" xmlns:svgjs="http://svgjs.com/svgjs" width="1000" height="1000"><rect width="1000" height="1000" rx="0" ry="0" fill="#000000"></rect><g transform="matrix(3.3333333333333335,0,0,3.3333333333333335,0.0000133514404296875,49.766663551330566)"><svg xmlns="http://www.w3.org/2000/svg" version="1.1" xmlns:xlink="http://www.w3.org/1999/xlink" xmlns:svgjs="http://svgjs.com/svgjs" width="300" height="270"><svg version="1.1" id="Layer_1" xmlns="http://www.w3.org/2000/svg" xmlns:xlink="http://www.w3.org/1999/xlink" x="0px" y="0px" viewBox="0 0 300 270" style="enable-background:new 0 0 300 270;" xml:space="preserve">
<style type="text/css">
	.st0{fill:#FFFFFF;}
</style>
<path class="st0" d="M76.6,9.7v113.7H50.7L35.3,71.7v51.7H10.6V9.7h24.7l16.6,51.2V9.7H76.6z"></path>
<path class="st0" d="M142.5,83.5h-32.6v17.8c0,3.7,0.3,6.2,0.8,7.2c0.5,1.1,1.6,1.6,3.1,1.6c1.9,0,3.2-0.7,3.8-2.2
	c0.6-1.4,0.9-4.2,0.9-8.3V88.8h23.9v6.1c0,5.1-0.3,9-0.9,11.8c-0.6,2.7-2.2,5.7-4.5,8.8c-2.3,3.1-5.5,5.5-9,7
	c-3.7,1.6-8.2,2.4-13.7,2.4c-4.8,0.1-9.5-0.7-14-2.3c-3.7-1.2-6.9-3.4-9.5-6.3c-2.2-2.6-3.8-5.6-4.7-8.8c-0.9-3.2-1.3-7.9-1.3-14
	V69.2c0-7.2,1-12.9,2.9-17.1c2-4.2,5.4-7.6,9.6-9.6c4.8-2.3,10-3.4,15.3-3.3c7,0,12.9,1.4,17.5,4c4.3,2.4,7.7,6.1,9.7,10.7
	c1.9,4.4,2.8,10.7,2.8,18.6V83.5z M117.2,70v-6c0-4.3-0.2-7-0.7-8.3c-0.4-1.2-1.5-2-2.8-1.9c-1.7,0-2.8,0.5-3.2,1.6
	s-0.6,3.9-0.6,8.6v6H117.2z"></path>
<path class="st0" d="M232,40.7l-10,82.6h-27.3c-1.5-10.1-3.2-23.4-5.2-39.9c-0.6,7.3-1.6,14.6-2.8,22l-2.8,17.9h-18l-4.2-8.3
	l-3.8,8.3h-1.4l-10.7-82.6h21.7c0.1,2.2,2,17.9,5.5,47.3c0.3-3,2.2-18.8,5.7-47.3h20.8l5.2,47.3c0.8-13.8,2.7-29.6,5.7-47.3H232z"></path>
<path class="st0" d="M287.5,67.1h-22.3v-4.5c0-3.8-0.2-6.2-0.6-7.2c-0.4-1-1.5-1.5-3.3-1.5c-1.2-0.1-2.4,0.4-3.2,1.4
	c-0.7,0.9-1.1,2.4-1.1,4.2c0,1.9,0.1,3.8,0.5,5.6c0.4,1.2,1.4,2.5,3.2,3.9c1.7,1.4,5.4,3.4,10.9,6.2c7.3,3.6,12.1,7,14.4,10.1
	c2.3,3.2,3.4,7.7,3.4,13.8c0,6.7-0.9,11.8-2.6,15.2s-4.7,6.1-8.7,7.9c-4.1,1.8-9,2.8-14.8,2.8c-6.4,0-11.9-1-16.4-3
	c-4.5-2-7.7-4.7-9.4-8.1c-1.7-3.4-2.6-8.5-2.6-15.5v-3.9h22.3v5.2c0,4.4,0.3,7.3,0.9,8.7c0.6,1.4,1.6,2,3.4,2s3-0.4,3.7-1.4
	c0.7-0.9,1.1-2.8,1.1-5.7c0-3.9-0.4-6.5-1.4-7.4c-0.9-0.9-5.8-3.9-14.6-8.8c-7.4-4.2-11.9-7.9-13.5-11.3s-2.4-7.4-2.4-12
	c0-6.6,0.9-11.5,2.7-14.6c1.8-3.2,4.7-5.6,8.9-7.2c4.6-1.8,9.6-2.7,14.5-2.6c4.7-0.1,9.5,0.6,14,2.1c3.8,1.4,6.8,3.2,8.8,5.5
	c2,2.3,3.3,4.4,3.7,6.4c0.5,3,0.7,6.1,0.6,9.2L287.5,67.1z"></path>
<path class="st0" d="M10.6,153.3h27.7c7.5,0,13.3,0.6,17.3,1.8c4,1.2,7,2.9,9,5.1c2.1,2.3,3.5,5,4.1,8c0.7,3.2,1.1,8,1.1,14.6v9.2
	c0,6.7-0.7,11.7-2.1,14.8s-3.9,5.4-7.7,7.1c-3.7,1.6-8.6,2.5-14.5,2.5h-7.4v42.6H10.6V153.3z M38.1,171.3v26.9
	c0.8,0.1,1.4,0.1,2,0.1c2.5,0,4.3-0.6,5.2-1.9c0.9-1.2,1.5-3.8,1.5-7.7V180c0-3.6-0.6-5.9-1.7-7C43.9,171.9,41.6,171.3,38.1,171.3z"></path>
<path class="st0" d="M126.2,189.4v69.7h-21.6l0.4-5.8c-1.3,2.2-3.2,4-5.4,5.3c-2.3,1.2-4.9,1.8-7.5,1.8c-2.7,0.1-5.5-0.5-8-1.6
	c-2-1-3.6-2.5-4.7-4.4c-1-1.8-1.6-3.8-1.9-5.8c-0.2-2-0.4-6-0.4-12v-47h21.2v47.4c0,5.4,0.1,8.7,0.5,9.7c0.4,1,1.2,1.5,2.7,1.5
	c1.5,0,2.5-0.5,2.8-1.6c0.3-1.1,0.4-4.4,0.4-10.2v-46.9H126.2z"></path>
<path class="st0" d="M222.2,202.6H200v-4.5c0-3.8-0.2-6.2-0.6-7.2c-0.4-1-1.5-1.5-3.3-1.5c-1.2-0.1-2.4,0.4-3.2,1.4
	c-0.7,0.9-1.1,2.4-1.1,4.2c0,1.9,0.1,3.8,0.5,5.6c0.4,1.2,1.4,2.5,3.2,3.9c1.7,1.4,5.4,3.4,10.9,6.2c7.3,3.6,12.1,7,14.4,10.1
	c2.3,3.2,3.4,7.7,3.4,13.8c0,6.7-0.9,11.8-2.6,15.2c-1.7,3.4-4.7,6.1-8.7,7.9c-4.1,1.8-9,2.8-14.8,2.8c-6.4,0-11.9-1-16.4-3
	c-4.5-2-7.7-4.7-9.4-8.1c-1.7-3.4-2.6-8.5-2.6-15.5v-4H192v5.2c0,4.4,0.3,7.3,0.9,8.7c0.6,1.4,1.6,2,3.4,2s3-0.4,3.7-1.4
	c0.7-0.9,1.1-2.8,1.1-5.7c0-3.9-0.4-6.5-1.4-7.4c-0.9-0.9-5.8-3.9-14.6-8.8c-7.4-4.2-11.9-7.9-13.5-11.3c-1.6-3.4-2.4-7.4-2.4-12
	c0-6.6,0.9-11.5,2.7-14.6c1.8-3.2,4.7-5.5,8.9-7.2c4.6-1.8,9.6-2.7,14.5-2.6c4.7-0.1,9.5,0.6,14,2.1c3.8,1.4,6.8,3.2,8.8,5.5
	c2,2.3,3.3,4.4,3.7,6.4c0.5,3,0.7,6.1,0.6,9.2L222.2,202.6z"></path>
<path class="st0" d="M287.8,219h-32.6v17.8c0,3.7,0.3,6.2,0.8,7.2c0.6,1.1,1.8,1.8,3.1,1.6c1.9,0,3.2-0.7,3.8-2.2
	c0.6-1.4,1-4.2,1-8.3v-10.9h23.9v6.1c0,5.1-0.3,9-0.9,11.8c-0.6,2.7-2.2,5.7-4.5,8.8c-2.3,3.1-5.5,5.5-9,7
	c-3.7,1.6-8.2,2.4-13.7,2.4c-4.8,0.1-9.5-0.7-14-2.3c-3.7-1.2-6.9-3.4-9.5-6.3c-2.2-2.6-3.8-5.6-4.7-8.8c-0.9-3.2-1.3-7.9-1.3-14
	v-24.2c0-7.2,1-12.9,2.9-17.1c2-4.2,5.4-7.6,9.6-9.6c4.8-2.3,10-3.4,15.3-3.3c7,0,12.9,1.4,17.5,4c4.3,2.4,7.7,6.1,9.7,10.6
	c1.9,4.4,2.8,10.7,2.8,18.6L287.8,219z M262.7,205.6v-6c0-4.3-0.2-7-0.7-8.3c-0.4-1.2-1.5-2-2.8-1.9c-1.7,0-2.8,0.5-3.2,1.6
	c-0.4,1.1-0.6,3.9-0.6,8.6v6H262.7z"></path>
<path class="st0" d="M259.8,144.7h-59.3l-8.7-13.1l-15.4,30l-14.5-41.9L151,158h-2.3L136,133.5l-9.7,9H77.3c-1.6,0-2.9,1.3-2.9,2.9
	s1.3,2.9,2.9,2.9h52.8l5.3-5.3l6.3,15.1h-5.8v100.8h25.9V158.1h-3.2l3.2-22.1l13.2,40.3l17.6-32.8l4.1,7.1h63.2
	c1.6,0,2.9-1.3,2.9-2.9C262.7,146,261.4,144.7,259.8,144.7L259.8,144.7z"></path>
</svg></svg></g></svg>