<?xml version="1.0" encoding="utf-8"?>
<!-- Generator: Adobe Illustrator 24.2.3, SVG Export Plug-In . SVG Version: 6.00 Build 0)  -->
<svg version="1.1" id="Layer_1" xmlns="http://www.w3.org/2000/svg" xmlns:xlink="http://www.w3.org/1999/xlink" x="0px" y="0px"
	 viewBox="0 0 400 359.5" style="enable-background:new 0 0 400 359.5;" xml:space="preserve">
<g>
	<g>
		<path d="M97.6,4.9v158.6H61.5L40,91.4v72.1H5.5V4.9H40l23.1,71.4V4.9L97.6,4.9z"/>
		<path d="M189.5,107.8H144v24.9c0,5.2,0.4,8.6,1.1,10.1c0.7,1.5,2.2,2.3,4.3,2.3c2.7,0,4.5-1,5.3-3c0.9-2,1.3-5.9,1.3-11.6v-15.2
			h33.3v8.5c0,7.1-0.4,12.6-1.3,16.4c-0.9,3.8-3,7.9-6.3,12.3c-3.3,4.3-7.6,7.7-12.6,9.8c-5.1,2.2-11.4,3.3-19.1,3.3
			c-6.7,0.1-13.3-1-19.6-3.2c-5.7-2.1-10.1-5.1-13.2-8.8c-3.1-3.6-5.3-7.8-6.6-12.3c-1.2-4.5-1.8-11-1.8-19.6V87.9
			c0-10.1,1.4-18,4.1-23.9c2.8-5.9,7.5-10.6,13.4-13.4c6.2-3.1,13.3-4.6,21.4-4.6c9.8,0,18,1.9,24.4,5.6c6.4,3.7,10.9,8.7,13.5,14.9
			c2.6,6.2,3.9,14.9,3.9,26L189.5,107.8z M154.3,89.1v-8.4c0-6-0.3-9.8-1-11.6c-0.5-1.7-2.2-2.8-3.9-2.6c-2.4,0-3.9,0.7-4.5,2.2
			c-0.6,1.5-0.9,5.5-0.9,12v8.4L154.3,89.1z"/>
		<path d="M314.4,48.2l-14,115.3h-38.1c-2.1-14.1-4.5-32.7-7.3-55.7c-0.9,10.2-2.3,20.4-3.9,30.7l-3.9,25h-25.1l-5.8-11.6l-5.3,11.6
			H209L194.1,48.2h30.3c0.2,3,2.8,25,7.7,66c0.4-4.2,3-26.2,7.9-66H269l7.2,66c1.1-19.3,3.8-41.3,8-66L314.4,48.2z"/>
		<path d="M391.8,85h-31.1v-6.3c0-5.3-0.3-8.7-0.9-10.1c-0.6-1.4-2.1-2.1-4.6-2.1c-1.7-0.1-3.4,0.6-4.4,2c-1,1.3-1.5,3.3-1.5,5.9
			c-0.1,2.6,0.2,5.2,0.7,7.8c0.5,1.7,2,3.5,4.4,5.4c2.5,2,7.5,4.8,15.2,8.6c10.2,5,16.9,9.7,20.1,14.1c3.2,4.4,4.8,10.8,4.8,19.2
			c0,9.4-1.2,16.5-3.6,21.2c-2.4,4.8-6.5,8.5-12.2,11c-5.7,2.6-12.6,3.9-20.6,3.9c-8.9,0-16.6-1.4-22.9-4.2
			c-6.3-2.8-10.7-6.5-13.1-11.3c-2.4-4.7-3.6-11.9-3.6-21.6V123h31.1v7.3c0,6.2,0.4,10.2,1.2,12.1c0.8,1.9,2.3,2.8,4.7,2.8
			c2.5,0,4.2-0.6,5.2-1.9s1.5-3.9,1.5-7.9c0-5.5-0.6-9-1.9-10.3c-1.3-1.4-8.1-5.5-20.4-12.3c-10.3-5.8-16.6-11-18.9-15.8
			c-2.3-4.7-3.4-10.3-3.4-16.8c0-9.2,1.2-16,3.7-20.4c2.4-4.4,6.6-7.8,12.4-10.1c5.8-2.4,12.6-3.6,20.3-3.6c7.7,0,14.2,1,19.5,2.9
			c5.3,1.9,9.5,4.5,12.3,7.7c2.9,3.2,4.6,6.1,5.2,8.9c0.6,2.7,0.9,7,0.9,12.8L391.8,85z"/>
	</g>
	<g>
		<path d="M5.5,205.2h38.6c10.4,0,18.5,0.8,24.1,2.5c5.6,1.6,9.8,4,12.6,7.1c2.9,3.2,4.8,7,5.7,11.2c1,4.4,1.5,11.2,1.5,20.4v12.8
			c0,9.4-1,16.3-2.9,20.6c-1.9,4.3-5.5,7.6-10.7,9.9c-5.2,2.3-12,3.5-20.3,3.5H43.8v59.4H5.5V205.2z M43.8,230.4v37.5
			c1.1,0.1,2,0.1,2.8,0.1c3.5,0,6-0.9,7.3-2.6c1.4-1.7,2.1-5.3,2.1-10.8v-12.1c0-5-0.8-8.3-2.4-9.8C52,231.1,48.8,230.4,43.8,230.4z
			"/>
		<path d="M166.8,255.6v97.3h-30.1l0.5-8.1c-1.8,3.1-4.5,5.6-7.6,7.4c-3.2,1.7-6.8,2.5-10.4,2.5c-4.5,0-8.1-0.8-11.1-2.3
			c-2.7-1.4-5-3.5-6.5-6.2c-1.4-2.5-2.2-5.3-2.6-8.1c-0.3-2.8-0.5-8.4-0.5-16.8v-65.6h29.6v66.2c0,7.6,0.2,12.1,0.7,13.5
			s1.7,2.1,3.8,2.1c2.2,0,3.5-0.7,3.9-2.2c0.4-1.5,0.6-6.2,0.6-14.2v-65.5H166.8z"/>
		<path d="M300.8,274.1h-31.1v-6.3c0-5.3-0.3-8.7-0.9-10.1c-0.6-1.4-2.1-2.1-4.6-2.1c-1.7-0.1-3.4,0.6-4.4,2c-1,1.3-1.5,3.3-1.5,5.9
			c-0.1,2.6,0.2,5.2,0.7,7.8c0.5,1.7,2,3.5,4.4,5.4c2.5,2,7.5,4.8,15.2,8.6c10.2,5,16.9,9.7,20.1,14.1s4.8,10.8,4.8,19.2
			c0,9.4-1.2,16.5-3.6,21.2c-2.4,4.8-6.5,8.5-12.2,11c-5.7,2.6-12.6,3.9-20.6,3.9c-8.9,0-16.6-1.4-22.9-4.2
			c-6.3-2.8-10.7-6.5-13.1-11.3c-2.4-4.7-3.6-11.9-3.6-21.6v-5.6h31.1v7.3c0,6.2,0.4,10.2,1.2,12.1s2.3,2.8,4.7,2.8
			c2.5,0,4.2-0.6,5.2-1.9s1.5-3.9,1.5-7.9c0-5.5-0.6-9-1.9-10.3c-1.3-1.4-8.1-5.5-20.4-12.3c-10.3-5.8-16.6-11-18.9-15.8
			c-2.3-4.7-3.4-10.3-3.4-16.8c0-9.2,1.2-16,3.7-20.4c2.4-4.4,6.6-7.7,12.4-10.1c5.8-2.4,12.6-3.6,20.3-3.6c7.7,0,14.2,1,19.5,2.9
			c5.3,1.9,9.5,4.5,12.3,7.7c2.9,3.2,4.6,6.1,5.2,8.9c0.6,2.7,0.9,7,0.9,12.8L300.8,274.1z"/>
		<path d="M392.3,296.9h-45.5v24.9c0,5.2,0.4,8.6,1.1,10.1c0.8,1.5,2.2,2.3,4.3,2.3c2.7,0,4.4-1,5.3-3c0.9-2,1.4-5.9,1.4-11.6v-15.2
			h33.3v8.5c0,7.1-0.4,12.6-1.3,16.4c-0.9,3.8-3,7.9-6.3,12.3c-3.3,4.3-7.6,7.7-12.6,9.8c-5.1,2.2-11.4,3.3-19.1,3.3
			c-6.7,0.1-13.3-1-19.6-3.2c-5.7-2.1-10.1-5.1-13.2-8.8c-3.1-3.6-5.3-7.8-6.6-12.3c-1.2-4.5-1.8-11-1.8-19.6V277
			c0-10.1,1.4-18,4.1-23.9c2.8-5.9,7.5-10.6,13.4-13.4c6.2-3.1,13.3-4.6,21.4-4.6c9.8,0,18,1.9,24.4,5.6c6.4,3.7,10.9,8.7,13.5,14.8
			c2.6,6.2,3.9,14.9,3.9,26L392.3,296.9z M357.2,278.2v-8.4c0-6-0.3-9.8-1-11.6c-0.5-1.7-2.2-2.8-3.9-2.6c-2.4,0-3.9,0.7-4.5,2.2
			c-0.6,1.5-0.9,5.5-0.9,12v8.4H357.2z"/>
		<path d="M353.2,193.3h-82.8L258.2,175l-21.5,41.8l-20.2-58.4l-15.1,53.4h-3.2l-17.8-34.2l-13.6,12.5H98.5c-2.2,0-4,1.8-4,4
			c0,2.2,1.8,4,4,4h73.7l7.4-7.4l8.8,21h-8.1v140.7h36.1V211.9H212l4.4-30.9l18.4,56.2l24.5-45.7l5.7,9.9h88.2c2.2,0,4-1.8,4-4
			C357.2,195.1,355.4,193.3,353.2,193.3z"/>
	</g>
</g>
</svg>
